<?xml version="1.0" standalone="no"?>
<!DOCTYPE svg PUBLIC "-//W3C//DTD SVG 20010904//EN"
 "http://www.w3.org/TR/2001/REC-SVG-20010904/DTD/svg10.dtd">
<svg version="1.0" xmlns="http://www.w3.org/2000/svg"
 width="659.000000pt" height="755.000000pt" viewBox="0 0 659.000000 755.000000"
 preserveAspectRatio="xMidYMid meet">

<g transform="translate(0.000000,755.000000) scale(0.100000,-0.100000)"
fill="#000000" stroke="none">
<path d="M1928 5391 c-55 -11 -160 -66 -223 -117 -110 -90 -196 -240 -221
-389 -13 -70 -15 -166 -11 -513 4 -458 4 -464 60 -585 66 -144 159 -241 297
-310 l85 -42 508 -3 c574 -3 519 -13 493 83 -24 91 -89 174 -166 212 -31 16
-76 19 -370 23 l-335 5 -57 27 c-114 53 -188 147 -223 283 -22 86 -22 614 0
700 25 96 61 159 125 218 91 85 113 90 395 95 269 4 301 -1 337 -51 l23 -32 5
-510 c5 -463 7 -515 24 -560 25 -66 57 -112 107 -152 42 -33 133 -68 150 -57
5 3 9 375 9 845 l0 839 -487 -1 c-269 -1 -505 -5 -525 -8z"/>
<path d="M4582 5381 c-99 -34 -180 -124 -201 -221 -7 -35 -11 -324 -11 -891
l0 -839 28 6 c100 24 178 90 224 190 l23 49 3 863 c1 474 -1 862 -5 862 -5 -1
-32 -9 -61 -19z"/>
<path d="M2301 3022 c-37 -11 -61 -52 -68 -114 -7 -74 2 -121 33 -158 22 -26
33 -30 73 -30 49 0 74 16 100 67 27 53 8 188 -31 220 -18 15 -78 23 -107 15z
m83 -64 c25 -35 21 -138 -5 -172 -26 -33 -43 -33 -76 0 -23 23 -25 31 -21 93
2 38 10 76 17 85 20 24 67 20 85 -6z"/>
<path d="M1900 2870 l0 -150 58 0 c75 0 117 25 131 77 24 84 6 174 -40 207
-16 11 -44 16 -86 16 l-63 0 0 -150z m130 80 c15 -15 20 -33 20 -74 0 -66 -20
-95 -70 -98 l-35 -3 -3 84 c-2 46 -1 90 2 98 8 20 63 16 86 -7z"/>
<path d="M2590 2869 c0 -150 0 -150 23 -147 21 3 22 9 27 98 l5 95 30 -55 c17
-30 37 -56 45 -58 10 -1 24 17 40 53 14 30 28 55 32 55 4 0 9 -42 10 -92 3
-88 4 -93 26 -96 22 -3 22 -3 22 147 l0 151 -30 0 c-27 0 -33 -6 -60 -65 -17
-36 -34 -65 -39 -65 -5 0 -23 29 -40 65 -27 59 -33 65 -60 65 l-31 0 0 -151z"/>
<path d="M3016 2888 c-20 -73 -40 -141 -42 -150 -4 -14 1 -18 20 -18 19 0 26
6 31 30 6 29 8 30 65 30 56 0 58 -1 64 -30 4 -24 11 -30 31 -30 14 0 25 1 25
3 0 1 -20 67 -43 147 l-42 145 -36 3 -36 3 -37 -133z m100 -44 c-6 -15 -52
-19 -60 -6 -5 9 17 93 31 115 8 14 36 -90 29 -109z"/>
<path d="M3359 2947 l40 -74 -18 -35 c-11 -19 -29 -50 -40 -69 -27 -43 -26
-49 2 -49 18 0 30 12 51 50 15 28 31 50 35 50 4 0 18 -22 31 -50 20 -43 27
-50 52 -50 l29 0 -32 58 c-18 31 -37 65 -43 75 -9 14 -3 32 27 87 20 38 37 72
37 75 0 3 -10 5 -23 5 -16 0 -28 -12 -46 -45 -13 -25 -27 -45 -32 -45 -4 0
-18 19 -31 43 -18 32 -30 43 -51 45 l-29 3 41 -74z"/>
<path d="M3850 3014 c0 -11 71 -277 76 -286 3 -4 17 -8 32 -8 25 0 29 5 46 68
10 37 27 97 37 133 24 84 24 99 0 99 -20 0 -34 -36 -62 -158 -19 -82 -23 -77
-65 87 -16 62 -21 71 -41 71 -13 0 -23 -3 -23 -6z"/>
<path d="M4190 2871 l0 -151 25 0 25 0 0 100 c0 55 3 100 8 100 4 0 27 -45 51
-100 41 -93 45 -100 72 -100 l29 0 0 150 0 150 -25 0 c-25 0 -25 -1 -25 -92 0
-56 -4 -88 -9 -82 -5 5 -25 45 -45 89 -33 77 -36 80 -70 83 l-36 3 0 -150z"/>
<path d="M3677 2774 c-4 -4 -7 -18 -7 -31 0 -20 5 -24 23 -21 16 2 22 10 22
28 0 24 -23 39 -38 24z"/>
<path d="M1873 2688 c5 -18 2629 -18 2635 0 3 9 -295 12 -1318 12 -1053 0
-1321 -3 -1317 -12z"/>
</g>
</svg>
